<mxfile host="65bd71144e">
    <diagram id="e6gL3GbO2ZeK6W0JEmfD" name="Page-1">
        <mxGraphModel dx="1785" dy="2758" grid="1" gridSize="10" guides="1" tooltips="1" connect="1" arrows="1" fold="1" page="1" pageScale="1" pageWidth="850" pageHeight="1100" math="0" shadow="0">
            <root>
                <mxCell id="0"/>
                <mxCell id="1" parent="0"/>
                <mxCell id="5" value="users" style="swimlane;childLayout=stackLayout;resizeParent=1;resizeParentMax=0;startSize=20;html=1;" vertex="1" parent="1">
                    <mxGeometry y="-2200" width="240" height="150" as="geometry"/>
                </mxCell>
                <mxCell id="6" value="Name" style="swimlane;startSize=20;html=1;" vertex="1" parent="5">
                    <mxGeometry y="20" width="120" height="130" as="geometry"/>
                </mxCell>
                <mxCell id="9" value="&lt;ul&gt;&lt;li&gt;&lt;font color=&quot;#ffff00&quot;&gt;id&lt;/font&gt;&lt;/li&gt;&lt;li&gt;username&lt;/li&gt;&lt;li&gt;email&lt;/li&gt;&lt;li&gt;avatar&lt;/li&gt;&lt;li&gt;blocked&lt;/li&gt;&lt;/ul&gt;" style="text;strokeColor=none;fillColor=none;html=1;whiteSpace=wrap;verticalAlign=middle;overflow=hidden;" vertex="1" parent="6">
                    <mxGeometry x="10" y="10" width="100" height="120" as="geometry"/>
                </mxCell>
                <mxCell id="7" value="Data Type" style="swimlane;startSize=20;html=1;" vertex="1" parent="5">
                    <mxGeometry x="120" y="20" width="120" height="130" as="geometry"/>
                </mxCell>
                <mxCell id="11" value="&lt;ul&gt;&lt;li&gt;&lt;font color=&quot;#ffff00&quot;&gt;string&lt;/font&gt;&lt;/li&gt;&lt;li&gt;string&lt;/li&gt;&lt;li&gt;string&lt;/li&gt;&lt;li&gt;string&lt;/li&gt;&lt;li&gt;string [ ]&lt;/li&gt;&lt;/ul&gt;" style="text;strokeColor=none;fillColor=none;html=1;whiteSpace=wrap;verticalAlign=middle;overflow=hidden;" vertex="1" parent="7">
                    <mxGeometry y="10" width="100" height="120" as="geometry"/>
                </mxCell>
                <mxCell id="12" value="chats" style="swimlane;childLayout=stackLayout;resizeParent=1;resizeParentMax=0;startSize=20;html=1;" vertex="1" parent="1">
                    <mxGeometry x="280" y="-2200" width="240" height="120" as="geometry"/>
                </mxCell>
                <mxCell id="13" value="Name" style="swimlane;startSize=20;html=1;" vertex="1" parent="12">
                    <mxGeometry y="20" width="120" height="100" as="geometry"/>
                </mxCell>
                <mxCell id="14" value="&lt;ul&gt;&lt;li&gt;&lt;font color=&quot;#ffff00&quot;&gt;id&lt;/font&gt;&lt;/li&gt;&lt;li&gt;createdAt&lt;/li&gt;&lt;li&gt;messages&lt;/li&gt;&lt;/ul&gt;" style="text;strokeColor=none;fillColor=none;html=1;whiteSpace=wrap;verticalAlign=middle;overflow=hidden;" vertex="1" parent="13">
                    <mxGeometry x="10" y="-5" width="100" height="120" as="geometry"/>
                </mxCell>
                <mxCell id="15" value="Data Type" style="swimlane;startSize=20;html=1;" vertex="1" parent="12">
                    <mxGeometry x="120" y="20" width="120" height="100" as="geometry"/>
                </mxCell>
                <mxCell id="16" value="&lt;ul&gt;&lt;li&gt;&lt;font color=&quot;#ffff00&quot;&gt;string&lt;/font&gt;&lt;/li&gt;&lt;li&gt;date&lt;/li&gt;&lt;li&gt;object [ ]&lt;/li&gt;&lt;/ul&gt;" style="text;strokeColor=none;fillColor=none;html=1;whiteSpace=wrap;verticalAlign=middle;overflow=hidden;" vertex="1" parent="15">
                    <mxGeometry y="-5" width="100" height="120" as="geometry"/>
                </mxCell>
                <mxCell id="17" value="userChats" style="swimlane;childLayout=stackLayout;resizeParent=1;resizeParentMax=0;startSize=20;html=1;" vertex="1" parent="1">
                    <mxGeometry x="560" y="-2200" width="240" height="150" as="geometry"/>
                </mxCell>
                <mxCell id="18" value="Name" style="swimlane;startSize=20;html=1;" vertex="1" parent="17">
                    <mxGeometry y="20" width="120" height="130" as="geometry"/>
                </mxCell>
                <mxCell id="19" value="&lt;ul&gt;&lt;li&gt;&lt;font color=&quot;#ffff00&quot;&gt;id&lt;/font&gt;&lt;/li&gt;&lt;li&gt;chats&lt;/li&gt;&lt;/ul&gt;" style="text;strokeColor=none;fillColor=none;html=1;whiteSpace=wrap;verticalAlign=middle;overflow=hidden;" vertex="1" parent="18">
                    <mxGeometry x="10" y="10" width="100" height="60" as="geometry"/>
                </mxCell>
                <mxCell id="20" value="Data Type" style="swimlane;startSize=20;html=1;" vertex="1" parent="17">
                    <mxGeometry x="120" y="20" width="120" height="130" as="geometry"/>
                </mxCell>
                <mxCell id="21" value="&lt;ul&gt;&lt;li&gt;&lt;font color=&quot;#ffff00&quot;&gt;string&lt;/font&gt;&lt;/li&gt;&lt;li&gt;object [ ]&lt;/li&gt;&lt;/ul&gt;" style="text;strokeColor=none;fillColor=none;html=1;whiteSpace=wrap;verticalAlign=middle;overflow=hidden;" vertex="1" parent="20">
                    <mxGeometry y="10" width="100" height="60" as="geometry"/>
                </mxCell>
                <mxCell id="23" value="" style="endArrow=classic;html=1;fontColor=#FFFF00;exitX=1.009;exitY=0.212;exitDx=0;exitDy=0;exitPerimeter=0;" edge="1" parent="1" source="11">
                    <mxGeometry width="50" height="50" relative="1" as="geometry">
                        <mxPoint x="300" y="-2140" as="sourcePoint"/>
                        <mxPoint x="310" y="-2145" as="targetPoint"/>
                    </mxGeometry>
                </mxCell>
                <mxCell id="25" value="" style="endArrow=classic;html=1;fontColor=#FFFF00;exitX=0.6;exitY=0.708;exitDx=0;exitDy=0;exitPerimeter=0;" edge="1" parent="1" source="16">
                    <mxGeometry width="50" height="50" relative="1" as="geometry">
                        <mxPoint x="460" y="-2050" as="sourcePoint"/>
                        <mxPoint x="460" y="-1970" as="targetPoint"/>
                    </mxGeometry>
                </mxCell>
                <mxCell id="26" value="&lt;font color=&quot;#ffffff&quot;&gt;{&lt;br&gt;&lt;span style=&quot;white-space: pre;&quot;&gt;&#9;&lt;/span&gt;chatId: string,&lt;br&gt;&lt;span style=&quot;white-space: pre;&quot;&gt;&#9;&lt;/span&gt;senderId: string,&lt;br&gt;&lt;span style=&quot;white-space: pre;&quot;&gt;&#9;&lt;/span&gt;text: string,&lt;br&gt;&lt;span style=&quot;white-space: pre;&quot;&gt;&#9;&lt;/span&gt;image: string,&lt;br&gt;&lt;/font&gt;&lt;font color=&quot;#ffffff&quot;&gt;&lt;span style=&quot;white-space: pre;&quot;&gt;&#9;&lt;/span&gt;createdAt: date&lt;br&gt;}&lt;/font&gt;" style="rounded=0;whiteSpace=wrap;html=1;fontColor=#FFFF00;align=left;spacingLeft=19;" vertex="1" parent="1">
                    <mxGeometry x="400" y="-1970" width="180" height="150" as="geometry"/>
                </mxCell>
                <mxCell id="28" value="" style="endArrow=classic;html=1;fontColor=#FFFF00;exitX=0.6;exitY=0.708;exitDx=0;exitDy=0;exitPerimeter=0;" edge="1" parent="1">
                    <mxGeometry width="50" height="50" relative="1" as="geometry">
                        <mxPoint x="740" y="-2120.04" as="sourcePoint"/>
                        <mxPoint x="740" y="-1990" as="targetPoint"/>
                    </mxGeometry>
                </mxCell>
                <mxCell id="29" value="&lt;font color=&quot;#ffffff&quot;&gt;{&lt;br&gt;&lt;span style=&quot;white-space: pre;&quot;&gt;&#9;&lt;/span&gt;chatId: string,&lt;br&gt;&lt;span style=&quot;white-space: pre;&quot;&gt;&#9;&lt;/span&gt;receiverId: string,&lt;br&gt;&lt;span style=&quot;white-space: pre;&quot;&gt;&#9;&lt;/span&gt;lastMessage: string,&lt;br&gt;&lt;span style=&quot;white-space: pre;&quot;&gt;&#9;&lt;/span&gt;updatedAt: date,&lt;br&gt;&lt;span style=&quot;white-space: pre;&quot;&gt;&#9;&lt;/span&gt;isSeen: boolean&lt;br&gt;}&lt;/font&gt;" style="rounded=0;whiteSpace=wrap;html=1;fontColor=#FFFF00;align=left;spacingLeft=19;" vertex="1" parent="1">
                    <mxGeometry x="680" y="-1990" width="170" height="150" as="geometry"/>
                </mxCell>
                <mxCell id="30" value="" style="endArrow=classic;html=1;fontColor=#FFFF00;exitX=1.009;exitY=0.212;exitDx=0;exitDy=0;exitPerimeter=0;" edge="1" parent="1">
                    <mxGeometry width="50" height="50" relative="1" as="geometry">
                        <mxPoint x="490.89999999999986" y="-2144.56" as="sourcePoint"/>
                        <mxPoint x="580" y="-2145" as="targetPoint"/>
                    </mxGeometry>
                </mxCell>
            </root>
        </mxGraphModel>
    </diagram>
</mxfile>
